<?xml version="1.0" standalone="no"?><!DOCTYPE svg PUBLIC "-//W3C//DTD SVG 1.1//EN" "http://www.w3.org/Graphics/SVG/1.1/DTD/svg11.dtd"><svg t="1735105395607" class="icon" viewBox="0 0 1024 1024" version="1.1" xmlns="http://www.w3.org/2000/svg" p-id="4993" xmlns:xlink="http://www.w3.org/1999/xlink" width="128" height="128"><path d="M512 512m-414 0a414 414 0 1 0 828 0 414 414 0 1 0-828 0Z" fill="#F0C48A" p-id="4994"></path><path d="M402.6 394.8h218.8v237.6H402.6z" fill="#FD919E" p-id="4995"></path><path d="M562.6 394.8h58.8v236h-58.8z" fill="#E8677D" p-id="4996"></path><path d="M612.8 870H411.2c-25.6 0-46.4-20.8-46.4-46.4v-191.2h294.2v191.2c0.2 25.6-20.6 46.4-46.2 46.4zM659.2 394.8H364.8v-191.2c0-25.6 20.8-46.4 46.4-46.4h201.6c25.6 0 46.4 20.8 46.4 46.4v191.2z" fill="#D3E6F8" p-id="4997"></path><path d="M659.2 394.8h-53V154c29.2 0 53 23.8 53 53v187.8zM659.2 630.8h-53v240.8c29.2 0 53-23.8 53-53v-187.8z" fill="#A4CFF2" p-id="4998"></path><path d="M659.2 406.6H364.8c-6.4 0-11.8-5.2-11.8-11.8v-191.2c0-32 26-58 58-58h201.6c32 0 58 26 58 58v191.2c0.2 6.6-5 11.8-11.4 11.8z m-282.6-23.4h270.8v-179.6c0-19-15.6-34.6-34.6-34.6H411.2c-19 0-34.6 15.6-34.6 34.6v179.6zM612.8 881.6H411.2c-32 0-58-26-58-58v-191.2c0-6.4 5.2-11.8 11.8-11.8h294.2c6.4 0 11.8 5.2 11.8 11.8v191.2c-0.2 32-26.2 58-58.2 58zM376.6 644v179.6c0 19 15.6 34.6 34.6 34.6h201.6c19 0 34.6-15.6 34.6-34.6V644H376.6z" fill="#4C4372" p-id="4999"></path><path d="M621.4 644H402.6c-6.4 0-11.8-5.2-11.8-11.8V394.8c0-6.4 5.2-11.8 11.8-11.8h218.8c6.4 0 11.8 5.2 11.8 11.8v237.6c0 6.4-5.4 11.6-11.8 11.6z m-207-23.4h195.4v-214h-195.4v214zM512.6 1024c-6.4 0-11.8-5.2-11.8-11.8V870c0-6.4 5.2-11.8 11.8-11.8 6.4 0 11.8 5.2 11.8 11.8v142.4c0 6.4-5.4 11.6-11.8 11.6zM512.6 165.8c-6.4 0-11.8-5.2-11.8-11.8V11.8c0-6.4 5.2-11.8 11.8-11.8 6.4 0 11.8 5.2 11.8 11.8V154c0 6.6-5.4 11.8-11.8 11.8zM659.2 762.8H364.8c-6.4 0-11.8-5.2-11.8-11.8 0-6.4 5.2-11.8 11.8-11.8h294.2c6.4 0 11.8 5.2 11.8 11.8 0 6.6-5.2 11.8-11.6 11.8zM655.8 286.2H365.4c-6.4 0-11.8-5.2-11.8-11.8 0-6.4 5.2-11.8 11.8-11.8h290.4c6.4 0 11.8 5.2 11.8 11.8 0 6.6-5.4 11.8-11.8 11.8z" fill="#4C4372" p-id="5000"></path><path d="M621.4 578H402.6c-6.4 0-11.8-5.2-11.8-11.8 0-6.4 5.2-11.8 11.8-11.8h218.8c6.4 0 11.8 5.2 11.8 11.8 0 6.6-5.4 11.8-11.8 11.8zM621.4 472.6H402.6c-6.4 0-11.8-5.2-11.8-11.8s5.2-11.8 11.8-11.8h218.8c6.4 0 11.8 5.2 11.8 11.8s-5.4 11.8-11.8 11.8z" fill="#4C4372" p-id="5001"></path></svg>